# xmcd CD database file
#
# Track frame offsets:
#	150
#	10032
#	30022
#	47030
#	55437
#	67232
#	78255
#	88972
#	98967
#	115737
#	129045
#	133072
#	145197
#	159995
#	178325
#	196462
#	216620
#	232675
#
# Disc length: 3383 seconds
#
# Revision: 0
# Processed by: cddbd v1.5.2PL0 Copyright (c) Steve Scherf et al.
# Submitted via: CDex 1.51
#
DISCID=f60d3512
DTITLE=Various Artist - 2.UP presents Country Vol 3 - CD1
DYEAR=1991
DGENRE=Country
TTITLE0=Jerry Lee Lewis - Motor Running
TTITLE1=Jerry Lee Lewis - Somewhere Over The Rainbow
TTITLE2=Jerry Lee Lewis - You Turn Me On - Good Golly Miss Molly - Tutti Fruitti
TTITLE3=Jerry Lee Lewis - Great Balls Of Fire
TTITLE4=Jerry Lee Lewis - Rockin' My Life Away
TTITLE5=Jerry Lee Lewis - Whole Lotta Shakin' Goin' On
TTITLE6=Roger McGuinn - Mr Tambourine Man
TTITLE7=Roger McGuinn - Mr Spaceman
TTITLE8=Roger McGuinn - Turn Turn Turn
TTITLE9=Roger McGuinn - Tiffany Queen
TTITLE10=Roger McGuinn - So You Want To Be A Rock 'n' Roll Star
TTITLE11=The Nitty Gritty Dirt Band - High Horse
TTITLE12=The Nitty Gritty Dirt Band - Home Again In My Heart
TTITLE13=The Nitty Gritty Dirt Band - Long Hard Ride
TTITLE14=The Nitty Gritty Dirt Band - Partners, Brothers, Friends
TTITLE15=The Nitty Gritty Dirt Band - Cadillac Ranch
TTITLE16=The Nitty Gritty Dirt Band - Dance Little Jean
TTITLE17=The Nitty Gritty Dirt Band - Mr Bojangles
EXTD=YEAR: 1991
EXTT0=
EXTT1=
EXTT2=
EXTT3=
EXTT4=
EXTT5=
EXTT6=
EXTT7=
EXTT8=
EXTT9=
EXTT10=
EXTT11=
EXTT12=
EXTT13=
EXTT14=
EXTT15=
EXTT16=
EXTT17=
PLAYORDER=
